<?xml version="1.0" encoding="utf-8"?>
<!-- Generator: Adobe Illustrator 26.0.0, SVG Export Plug-In . SVG Version: 6.00 Build 0)  -->
<svg version="1.1" id="Layer_1" xmlns="http://www.w3.org/2000/svg" xmlns:xlink="http://www.w3.org/1999/xlink" x="0px" y="0px"
	 viewBox="0 0 600 238.56" style="enable-background:new 0 0 600 238.56;" xml:space="preserve">
<style type="text/css">
	.st0{fill:#65C9DF;}
	.st1{fill:#FFFFFF;}
</style>
<g>
	<g>
		<path class="st0" d="M77.91,176.67h9.88v3H74.22v-28.21h3.68V176.67z"/>
		<path class="st0" d="M112.43,173.39h-12.3l-2.27,6.27h-3.89l10.2-28.05h4.25l10.16,28.05h-3.89L112.43,173.39z M111.38,170.4
			l-5.1-14.25l-5.1,14.25H111.38z"/>
		<path class="st0" d="M149.26,179.67h-3.68l-14.81-22.46v22.46h-3.68v-28.25h3.68l14.81,22.42v-22.42h3.68V179.67z"/>
		<path class="st0" d="M176.36,153.18c2.25,1.15,3.98,2.79,5.18,4.92c1.2,2.13,1.8,4.64,1.8,7.53c0,2.89-0.6,5.39-1.8,7.51
			c-1.2,2.12-2.93,3.74-5.18,4.86c-2.25,1.12-4.92,1.68-7.99,1.68h-8.78v-28.21h8.78C171.44,151.46,174.1,152.03,176.36,153.18z
			 M176.7,173.74c1.92-1.93,2.87-4.63,2.87-8.11c0-3.51-0.96-6.25-2.89-8.22c-1.93-1.97-4.7-2.96-8.32-2.96h-5.1v22.18h5.1
			C172.01,176.63,174.78,175.67,176.7,173.74z"/>
		<path class="st0" d="M223.77,173.39h-12.3l-2.27,6.27h-3.89l10.2-28.05h4.25l10.16,28.05h-3.89L223.77,173.39z M222.72,170.4
			l-5.1-14.25l-5.1,14.25H222.72z"/>
		<path class="st0" d="M260.6,179.67h-3.68L242.1,157.2v22.46h-3.68v-28.25h3.68l14.81,22.42v-22.42h3.68V179.67z"/>
		<path class="st0" d="M286.91,163.11c2.75-0.51,4.13-1.93,4.13-4.25c0-1.03-0.14-2.78-0.4-5.26c-0.27-2.64-0.4-4.56-0.4-5.75
			c0-1.94,0.55-3.43,1.64-4.45s2.56-1.54,4.39-1.54h2.35v3.2h-1.66c-1.05,0-1.84,0.24-2.35,0.71c-0.51,0.47-0.77,1.25-0.77,2.33
			c0,0.78,0.05,1.75,0.16,2.89c0.11,1.15,0.17,1.92,0.2,2.33c0.27,2.59,0.4,4.48,0.4,5.67c0,1.43-0.36,2.62-1.07,3.58
			s-1.81,1.6-3.3,1.92v0.08c1.48,0.32,2.58,0.97,3.3,1.94c0.71,0.97,1.07,2.17,1.07,3.6c0,1.19-0.14,3.08-0.4,5.67
			c-0.03,0.41-0.09,1.18-0.2,2.33c-0.11,1.15-0.16,2.11-0.16,2.89c0,1.08,0.26,1.85,0.77,2.33c0.51,0.47,1.29,0.71,2.35,0.71h1.66
			v3.2h-2.35c-1.83,0-3.3-0.51-4.39-1.54s-1.64-2.51-1.64-4.45c0-1.19,0.13-3.1,0.4-5.75c0.27-2.48,0.4-4.24,0.4-5.26
			c0-2.32-1.38-3.74-4.13-4.25V163.11z"/>
		<path class="st0" d="M309.65,163.11c2.75-0.51,4.13-1.93,4.13-4.25c0-1.03-0.14-2.78-0.41-5.26c-0.27-2.64-0.4-4.56-0.4-5.75
			c0-1.94,0.55-3.43,1.64-4.45s2.56-1.54,4.39-1.54h2.35v3.2h-1.66c-1.05,0-1.83,0.24-2.35,0.71c-0.51,0.47-0.77,1.25-0.77,2.33
			c0,0.78,0.05,1.75,0.16,2.89c0.11,1.15,0.18,1.92,0.2,2.33c0.27,2.59,0.4,4.48,0.4,5.67c0,1.43-0.36,2.62-1.07,3.58
			c-0.72,0.96-1.82,1.6-3.3,1.92v0.08c1.48,0.32,2.58,0.97,3.3,1.94c0.71,0.97,1.07,2.17,1.07,3.6c0,1.19-0.14,3.08-0.4,5.67
			c-0.03,0.41-0.1,1.18-0.2,2.33c-0.11,1.15-0.16,2.11-0.16,2.89c0,1.08,0.26,1.85,0.77,2.33c0.51,0.47,1.29,0.71,2.35,0.71h1.66
			v3.2H319c-1.83,0-3.3-0.51-4.39-1.54s-1.64-2.51-1.64-4.45c0-1.19,0.13-3.1,0.4-5.75c0.27-2.48,0.41-4.24,0.41-5.26
			c0-2.32-1.38-3.74-4.13-4.25V163.11z"/>
		<path class="st0" d="M334.95,151.46v28.21h-3.68v-28.21H334.95z"/>
		<path class="st0" d="M362.63,151.46v3h-7.69v25.21h-3.68v-25.21h-7.73v-3H362.63z"/>
		<path class="st0" d="M400.27,151.46v20.84c0,2.32-0.71,4.18-2.14,5.57c-1.43,1.39-3.32,2.08-5.67,2.08
			c-2.37,0-4.28-0.71-5.71-2.12c-1.43-1.42-2.15-3.35-2.15-5.81h3.68c0.03,1.38,0.38,2.5,1.07,3.36c0.69,0.86,1.72,1.29,3.1,1.29
			s2.4-0.41,3.08-1.23c0.67-0.82,1.01-1.87,1.01-3.14v-20.84H400.27z"/>
		<path class="st0" d="M417.19,178.11c-2.16-1.23-3.87-2.94-5.12-5.14s-1.88-4.67-1.88-7.43s0.63-5.23,1.88-7.43
			s2.96-3.91,5.12-5.14c2.16-1.23,4.55-1.84,7.16-1.84c2.64,0,5.04,0.61,7.2,1.84c2.16,1.23,3.86,2.93,5.1,5.12
			c1.24,2.19,1.86,4.67,1.86,7.45c0,2.78-0.62,5.26-1.86,7.45c-1.24,2.19-2.94,3.89-5.1,5.12c-2.16,1.23-4.56,1.84-7.2,1.84
			C421.73,179.95,419.34,179.34,417.19,178.11z M429.67,175.38c1.58-0.92,2.82-2.23,3.72-3.93c0.9-1.7,1.36-3.67,1.36-5.91
			c0-2.27-0.45-4.24-1.36-5.93c-0.9-1.69-2.14-2.99-3.7-3.91c-1.57-0.92-3.35-1.38-5.34-1.38c-2,0-3.78,0.46-5.34,1.38
			c-1.57,0.92-2.8,2.22-3.7,3.91c-0.9,1.69-1.36,3.66-1.36,5.93c0,2.24,0.45,4.21,1.36,5.91c0.9,1.7,2.14,3.01,3.72,3.93
			c1.58,0.92,3.35,1.38,5.32,1.38C426.32,176.75,428.09,176.29,429.67,175.38z"/>
		<path class="st0" d="M464.36,166.39c0.85,0.67,1.52,1.51,2.02,2.51c0.5,1,0.75,2.06,0.75,3.2c0,1.43-0.36,2.72-1.09,3.87
			c-0.73,1.15-1.79,2.05-3.18,2.71s-3.03,0.99-4.92,0.99h-10.52v-28.21h10.12c1.92,0,3.55,0.32,4.9,0.95
			c1.35,0.63,2.36,1.49,3.04,2.57s1.01,2.29,1.01,3.64c0,1.67-0.45,3.06-1.36,4.15c-0.9,1.09-2.1,1.88-3.58,2.37
			C462.57,165.3,463.51,165.72,464.36,166.39z M451.1,163.64h6.19c1.73,0,3.06-0.4,4.01-1.21c0.94-0.81,1.42-1.93,1.42-3.36
			c0-1.43-0.47-2.55-1.42-3.36c-0.95-0.81-2.31-1.21-4.09-1.21h-6.11V163.64z M461.91,175.33c1.03-0.86,1.54-2.06,1.54-3.6
			c0-1.56-0.54-2.8-1.62-3.7s-2.52-1.36-4.33-1.36h-6.39v9.96h6.52C459.45,176.63,460.88,176.2,461.91,175.33z"/>
		<path class="st0" d="M477.45,179.18c-0.49-0.49-0.73-1.08-0.73-1.78c0-0.7,0.24-1.29,0.73-1.78c0.49-0.49,1.08-0.73,1.78-0.73
			c0.67,0,1.25,0.24,1.72,0.73c0.47,0.49,0.71,1.08,0.71,1.78c0,0.7-0.24,1.29-0.71,1.78c-0.47,0.49-1.05,0.73-1.72,0.73
			C478.53,179.91,477.94,179.67,477.45,179.18z M481.05,151.46l-0.45,20.24h-3.08l-0.45-20.24H481.05z"/>
		<path class="st0" d="M499.59,170.24c0,1.03,0.13,2.78,0.41,5.26c0.27,2.64,0.4,4.56,0.4,5.75c0,1.94-0.55,3.43-1.64,4.45
			s-2.56,1.54-4.39,1.54h-2.35v-3.2h1.66c1.05,0,1.83-0.24,2.35-0.71c0.51-0.47,0.77-1.25,0.77-2.33c0-0.78-0.05-1.75-0.16-2.89
			c-0.11-1.15-0.18-1.92-0.2-2.33c-0.27-2.59-0.41-4.48-0.41-5.67c0-1.43,0.36-2.63,1.07-3.6c0.71-0.97,1.81-1.62,3.3-1.94v-0.08
			c-1.48-0.32-2.58-0.96-3.3-1.92s-1.07-2.15-1.07-3.58c0-1.19,0.13-3.08,0.41-5.67c0.03-0.41,0.09-1.18,0.2-2.33
			c0.11-1.15,0.16-2.11,0.16-2.89c0-1.08-0.26-1.86-0.77-2.33c-0.51-0.47-1.29-0.71-2.35-0.71h-1.66v-3.2h2.35
			c1.83,0,3.3,0.51,4.39,1.54s1.64,2.51,1.64,4.45c0,1.19-0.13,3.1-0.4,5.75c-0.27,2.48-0.41,4.24-0.41,5.26
			c0,2.32,1.38,3.74,4.13,4.25v2.87C500.96,166.5,499.59,167.92,499.59,170.24z"/>
		<path class="st0" d="M522.33,170.24c0,1.03,0.13,2.78,0.41,5.26c0.27,2.64,0.4,4.56,0.4,5.75c0,1.94-0.55,3.43-1.64,4.45
			s-2.56,1.54-4.39,1.54h-2.35v-3.2h1.66c1.05,0,1.83-0.24,2.35-0.71c0.51-0.47,0.77-1.25,0.77-2.33c0-0.78-0.05-1.75-0.16-2.89
			c-0.11-1.15-0.18-1.92-0.2-2.33c-0.27-2.59-0.41-4.48-0.41-5.67c0-1.43,0.36-2.63,1.07-3.6c0.71-0.97,1.81-1.62,3.3-1.94v-0.08
			c-1.48-0.32-2.58-0.96-3.3-1.92s-1.07-2.15-1.07-3.58c0-1.19,0.13-3.08,0.41-5.67c0.03-0.41,0.09-1.18,0.2-2.33
			c0.11-1.15,0.16-2.11,0.16-2.89c0-1.08-0.26-1.86-0.77-2.33c-0.51-0.47-1.29-0.71-2.35-0.71h-1.66v-3.2h2.35
			c1.83,0,3.3,0.51,4.39,1.54s1.64,2.51,1.64,4.45c0,1.19-0.13,3.1-0.4,5.75c-0.27,2.48-0.41,4.24-0.41,5.26
			c0,2.32,1.38,3.74,4.13,4.25v2.87C523.71,166.5,522.33,167.92,522.33,170.24z"/>
	</g>
	<g>
		<path class="st1" d="M22.08,199.09l-0.62,3.45h-7.17l-4.15,23.5H5.71l4.15-23.5H2.65l0.62-3.45H22.08z"/>
		<path class="st1" d="M27.08,225.52c-1.32-0.53-2.37-1.3-3.14-2.33c-0.78-1.02-1.16-2.23-1.16-3.63c0-0.18,0.03-0.5,0.08-0.97h4.38
			c-0.1,1.19,0.25,2.18,1.05,2.97c0.8,0.79,1.95,1.18,3.45,1.18c1.6,0,2.86-0.33,3.76-0.99c0.9-0.66,1.36-1.61,1.36-2.85
			c0-0.75-0.23-1.39-0.68-1.92c-0.45-0.53-1.02-0.98-1.71-1.34c-0.69-0.36-1.64-0.79-2.85-1.28c-1.6-0.67-2.88-1.28-3.84-1.82
			c-0.96-0.54-1.78-1.29-2.46-2.25c-0.69-0.96-1.03-2.16-1.03-3.61c0-1.6,0.41-3,1.24-4.21c0.83-1.2,1.97-2.13,3.43-2.77
			c1.46-0.65,3.11-0.97,4.94-0.97c1.83,0,3.42,0.3,4.75,0.91c1.33,0.61,2.34,1.46,3.02,2.56c0.68,1.1,0.99,2.38,0.91,3.86h-4.65
			c0.1-1.06-0.22-1.95-0.97-2.66c-0.75-0.71-1.84-1.07-3.26-1.07c-1.5,0-2.69,0.34-3.59,1.03c-0.89,0.69-1.34,1.61-1.34,2.77
			c0,0.72,0.23,1.35,0.68,1.88c0.45,0.53,1.03,0.98,1.73,1.36c0.7,0.38,1.64,0.82,2.83,1.34c1.6,0.72,2.89,1.37,3.86,1.94
			c0.97,0.57,1.8,1.34,2.5,2.31c0.7,0.97,1.05,2.17,1.05,3.59c0,1.5-0.41,2.84-1.24,4.01c-0.83,1.18-1.99,2.09-3.49,2.75
			c-1.5,0.66-3.22,0.99-5.16,0.99C29.88,226.31,28.4,226.05,27.08,225.52z"/>
		<path class="st1" d="M44.91,220.15l0.58-3.33l16.32-18.69h5.35l-3.18,18.19h3.61l-0.7,3.84h-3.61l-1.05,5.89H57.9l1.05-5.89H44.91
			z M62.25,202.62l-11.55,13.69h9.15L62.25,202.62z"/>
		<path class="st1" d="M79.23,199.09l-3.02,17.1c-0.1,0.52-0.15,1.05-0.15,1.59c0,1.53,0.45,2.67,1.34,3.43
			c0.89,0.76,2.17,1.14,3.82,1.14c1.94,0,3.53-0.52,4.79-1.55c1.25-1.03,2.06-2.57,2.42-4.61l3.02-17.1h4.42l-3.02,17.1
			c-0.39,2.2-1.2,4.06-2.42,5.58c-1.23,1.53-2.71,2.66-4.44,3.41c-1.73,0.75-3.57,1.12-5.51,1.12c-2.64,0-4.78-0.67-6.42-2.02
			c-1.64-1.34-2.46-3.3-2.46-5.85c0-0.85,0.06-1.6,0.19-2.25l3.02-17.1H79.23z"/>
		<path class="st1" d="M117.65,199.09l-4.77,26.95h-4.42l4.77-26.95H117.65z"/>
		<path class="st1" d="M140.88,199.09l-0.62,3.45h-7.17l-4.15,23.5h-4.42l4.15-23.5h-7.21l0.62-3.45H140.88z"/>
		<path class="st1" d="M160.77,202.5l-1.43,8.18h9.31l-0.58,3.41h-9.31l-1.51,8.49h10.47l-0.62,3.45H152.2l4.77-26.99h14.89
			l-0.62,3.45H160.77z"/>
		<path class="st1" d="M192.51,206.13c1.33,1.2,2,2.93,2,5.18c0,0.57-0.06,1.28-0.19,2.13l-2.25,12.6h-4.38l2.13-11.94
			c0.1-0.72,0.15-1.24,0.15-1.55c0-1.42-0.39-2.51-1.18-3.26c-0.79-0.75-1.88-1.12-3.28-1.12c-1.68,0-3.1,0.51-4.25,1.53
			c-1.15,1.02-1.88,2.49-2.19,4.4v-0.12l-2.13,12.06h-4.42l3.76-21.37h4.42l-0.43,2.48c0.88-0.88,1.92-1.57,3.12-2.07
			s2.45-0.76,3.74-0.76C189.39,204.33,191.18,204.93,192.51,206.13z"/>
		<path class="st1" d="M214.38,205.32c1.18,0.66,2.02,1.48,2.54,2.46l0.54-3.1h4.46l-3.8,21.71c-0.36,1.96-1.09,3.72-2.17,5.25
			c-1.09,1.54-2.5,2.75-4.23,3.63c-1.73,0.88-3.68,1.32-5.85,1.32c-1.89,0-3.54-0.3-4.96-0.91c-1.42-0.61-2.5-1.48-3.22-2.62
			c-0.72-1.14-1.03-2.48-0.93-4.03h4.38c0.13,1.11,0.68,2.01,1.67,2.7c0.98,0.68,2.24,1.03,3.76,1.03c1.78,0,3.32-0.54,4.61-1.63
			c1.29-1.08,2.12-2.66,2.48-4.73l0.62-3.57c-0.93,1.01-2.09,1.86-3.49,2.54c-1.4,0.68-2.91,1.03-4.54,1.03
			c-1.63,0-3.08-0.36-4.34-1.08s-2.26-1.75-2.97-3.08c-0.71-1.33-1.07-2.86-1.07-4.59c0-0.78,0.08-1.56,0.23-2.37
			c0.39-2.15,1.17-4.05,2.35-5.7s2.62-2.94,4.32-3.86c1.71-0.92,3.49-1.38,5.35-1.38C211.78,204.33,213.2,204.66,214.38,205.32z
			 M215.75,213.75c0-1.73-0.51-3.09-1.53-4.09c-1.02-0.99-2.29-1.49-3.82-1.49c-1.14,0-2.25,0.28-3.33,0.83
			c-1.09,0.56-2.03,1.37-2.83,2.44c-0.8,1.07-1.33,2.35-1.59,3.82c-0.1,0.49-0.16,1.02-0.16,1.59c0,1.76,0.51,3.15,1.53,4.17
			c1.02,1.02,2.29,1.53,3.82,1.53c1.14,0,2.25-0.28,3.33-0.85c1.09-0.57,2.03-1.4,2.83-2.5s1.33-2.38,1.59-3.86
			C215.7,214.85,215.75,214.32,215.75,213.75z"/>
		<path class="st1" d="M232.15,204.68l-3.76,21.37h-4.42l3.76-21.37H232.15z M228.78,201.19c-0.44-0.44-0.66-1-0.66-1.67
			c0-0.9,0.34-1.69,1.03-2.35c0.68-0.66,1.47-0.99,2.35-0.99c0.7,0,1.26,0.22,1.69,0.66c0.43,0.44,0.64,1,0.64,1.67
			c0,0.91-0.34,1.69-1.01,2.35c-0.67,0.66-1.45,0.99-2.33,0.99C229.79,201.85,229.22,201.63,228.78,201.19z"/>
		<path class="st1" d="M254.2,206.13c1.33,1.2,2,2.93,2,5.18c0,0.57-0.06,1.28-0.19,2.13l-2.25,12.6h-4.38l2.13-11.94
			c0.1-0.72,0.15-1.24,0.15-1.55c0-1.42-0.39-2.51-1.18-3.26c-0.79-0.75-1.88-1.12-3.28-1.12c-1.68,0-3.1,0.51-4.25,1.53
			c-1.15,1.02-1.88,2.49-2.19,4.4v-0.12l-2.13,12.06h-4.42l3.76-21.37h4.42l-0.43,2.48c0.88-0.88,1.92-1.57,3.12-2.07
			s2.45-0.76,3.74-0.76C251.08,204.33,252.87,204.93,254.2,206.13z"/>
		<path class="st1" d="M278.78,206.58c1.59,1.5,2.38,3.52,2.38,6.05c0,0.59-0.06,1.31-0.19,2.13c-0.1,0.57-0.28,1.27-0.54,2.09
			H264.1c-0.03,0.18-0.04,0.45-0.04,0.81c0,1.53,0.47,2.74,1.42,3.64c0.94,0.91,2.18,1.36,3.7,1.36c2.4,0,4.25-1,5.54-2.99h4.77
			c-0.98,1.96-2.43,3.57-4.34,4.83c-1.91,1.25-4.12,1.88-6.63,1.88c-1.78,0-3.35-0.35-4.69-1.05c-1.34-0.7-2.39-1.7-3.14-3
			c-0.75-1.3-1.12-2.84-1.12-4.59c0-0.75,0.08-1.55,0.23-2.4c0.39-2.2,1.18-4.13,2.37-5.8c1.19-1.67,2.67-2.95,4.44-3.86
			c1.77-0.91,3.7-1.36,5.8-1.36C275.06,204.33,277.19,205.08,278.78,206.58z M276.63,212.66c0-1.42-0.47-2.55-1.42-3.37
			c-0.94-0.83-2.17-1.24-3.66-1.24c-1.58,0-3,0.5-4.27,1.51c-1.27,1.01-2.13,2.38-2.6,4.11h11.87
			C276.6,213.21,276.63,212.87,276.63,212.66z"/>
		<path class="st1" d="M302.7,206.58c1.59,1.5,2.38,3.52,2.38,6.05c0,0.59-0.06,1.31-0.19,2.13c-0.1,0.57-0.29,1.27-0.54,2.09
			h-16.32c-0.03,0.18-0.04,0.45-0.04,0.81c0,1.53,0.47,2.74,1.42,3.64c0.94,0.91,2.18,1.36,3.7,1.36c2.4,0,4.25-1,5.54-2.99h4.77
			c-0.98,1.96-2.43,3.57-4.34,4.83c-1.91,1.25-4.12,1.88-6.63,1.88c-1.78,0-3.35-0.35-4.69-1.05c-1.34-0.7-2.39-1.7-3.14-3
			c-0.75-1.3-1.12-2.84-1.12-4.59c0-0.75,0.08-1.55,0.23-2.4c0.39-2.2,1.18-4.13,2.37-5.8c1.19-1.67,2.67-2.95,4.44-3.86
			c1.77-0.91,3.7-1.36,5.8-1.36C298.99,204.33,301.11,205.08,302.7,206.58z M300.55,212.66c0-1.42-0.47-2.55-1.41-3.37
			c-0.94-0.83-2.17-1.24-3.66-1.24c-1.58,0-3,0.5-4.27,1.51c-1.27,1.01-2.13,2.38-2.6,4.11h11.87
			C300.53,213.21,300.55,212.87,300.55,212.66z"/>
		<path class="st1" d="M317.86,205.41c1.2-0.72,2.54-1.09,4.01-1.09l-0.81,4.58h-1.12c-1.71,0-3.08,0.43-4.11,1.28
			c-1.03,0.85-1.76,2.33-2.17,4.42l-2.02,11.44h-4.42l3.76-21.37h4.42l-0.66,3.76C315.62,207.14,316.66,206.14,317.86,205.41z"/>
		<path class="st1" d="M330.29,204.68l-3.76,21.37h-4.42l3.76-21.37H330.29z M326.92,201.19c-0.44-0.44-0.66-1-0.66-1.67
			c0-0.9,0.34-1.69,1.03-2.35c0.68-0.66,1.47-0.99,2.35-0.99c0.7,0,1.26,0.22,1.69,0.66c0.43,0.44,0.64,1,0.64,1.67
			c0,0.91-0.34,1.69-1.01,2.35c-0.67,0.66-1.45,0.99-2.33,0.99C327.93,201.85,327.36,201.63,326.92,201.19z"/>
		<path class="st1" d="M352.33,206.13c1.33,1.2,2,2.93,2,5.18c0,0.57-0.06,1.28-0.19,2.13l-2.25,12.6h-4.38l2.13-11.94
			c0.1-0.72,0.16-1.24,0.16-1.55c0-1.42-0.39-2.51-1.18-3.26c-0.79-0.75-1.88-1.12-3.28-1.12c-1.68,0-3.1,0.51-4.25,1.53
			c-1.15,1.02-1.88,2.49-2.19,4.4v-0.12l-2.13,12.06h-4.42l3.76-21.37h4.42l-0.43,2.48c0.88-0.88,1.92-1.57,3.12-2.07
			c1.2-0.5,2.45-0.76,3.74-0.76C349.21,204.33,351,204.93,352.33,206.13z"/>
		<path class="st1" d="M374.2,205.32c1.18,0.66,2.02,1.48,2.54,2.46l0.54-3.1h4.46l-3.8,21.71c-0.36,1.96-1.09,3.72-2.17,5.25
			c-1.09,1.54-2.5,2.75-4.23,3.63c-1.73,0.88-3.68,1.32-5.86,1.32c-1.89,0-3.54-0.3-4.96-0.91c-1.42-0.61-2.5-1.48-3.22-2.62
			c-0.72-1.14-1.03-2.48-0.93-4.03h4.38c0.13,1.11,0.68,2.01,1.67,2.7c0.98,0.68,2.24,1.03,3.76,1.03c1.78,0,3.32-0.54,4.61-1.63
			c1.29-1.08,2.12-2.66,2.48-4.73l0.62-3.57c-0.93,1.01-2.09,1.86-3.49,2.54c-1.4,0.68-2.91,1.03-4.54,1.03
			c-1.63,0-3.08-0.36-4.34-1.08s-2.26-1.75-2.97-3.08c-0.71-1.33-1.07-2.86-1.07-4.59c0-0.78,0.08-1.56,0.23-2.37
			c0.39-2.15,1.17-4.05,2.35-5.7c1.18-1.65,2.62-2.94,4.32-3.86c1.71-0.92,3.49-1.38,5.35-1.38
			C371.61,204.33,373.03,204.66,374.2,205.32z M375.58,213.75c0-1.73-0.51-3.09-1.53-4.09c-1.02-0.99-2.29-1.49-3.82-1.49
			c-1.14,0-2.25,0.28-3.33,0.83c-1.09,0.56-2.03,1.37-2.83,2.44c-0.8,1.07-1.33,2.35-1.59,3.82c-0.1,0.49-0.16,1.02-0.16,1.59
			c0,1.76,0.51,3.15,1.53,4.17c1.02,1.02,2.29,1.53,3.82,1.53c1.14,0,2.25-0.28,3.33-0.85c1.08-0.57,2.03-1.4,2.83-2.5
			c0.8-1.1,1.33-2.38,1.59-3.86C375.53,214.85,375.58,214.32,375.58,213.75z"/>
		<path class="st1" d="M416.06,209.91c-1.01,1.03-2.25,1.8-3.72,2.29c1.19,0.21,2.17,0.81,2.95,1.82c0.78,1.01,1.16,2.2,1.16,3.57
			c0,0.41-0.04,0.81-0.12,1.2c-0.23,1.37-0.8,2.6-1.71,3.7c-0.9,1.1-2.09,1.96-3.55,2.6c-1.46,0.63-3.08,0.95-4.87,0.95h-10.78
			l4.77-26.95h10.28c2.46,0,4.34,0.53,5.64,1.59c1.3,1.06,1.96,2.43,1.96,4.11c0,0.39-0.04,0.8-0.12,1.24
			C417.7,207.58,417.07,208.88,416.06,209.91z M412.07,217.43c0-1.06-0.39-1.9-1.16-2.52c-0.78-0.62-1.81-0.93-3.1-0.93h-5.82
			l-1.51,8.61h5.97c1.5,0,2.74-0.37,3.72-1.12s1.59-1.8,1.82-3.14C412.04,217.91,412.07,217.61,412.07,217.43z M413.46,205.76
			c0-1.01-0.35-1.8-1.05-2.37c-0.7-0.57-1.68-0.85-2.95-0.85H404l-1.4,7.99h5.47c1.45,0,2.64-0.35,3.59-1.05
			c0.94-0.7,1.52-1.67,1.73-2.91C413.44,206.21,413.46,205.94,413.46,205.76z"/>
		<path class="st1" d="M424.43,225.27c-1.37-0.75-2.44-1.81-3.2-3.18c-0.76-1.37-1.14-2.93-1.14-4.69c0-2.4,0.56-4.6,1.69-6.59
			c1.12-1.99,2.67-3.57,4.65-4.73s4.18-1.75,6.61-1.75c1.81,0,3.41,0.38,4.81,1.14c1.4,0.76,2.49,1.82,3.28,3.18
			c0.79,1.36,1.18,2.93,1.18,4.71c0,2.4-0.58,4.6-1.75,6.59c-1.16,1.99-2.74,3.56-4.73,4.71c-1.99,1.15-4.2,1.73-6.63,1.73
			C427.39,226.39,425.8,226.02,424.43,225.27z M433.8,221.41c1.23-0.84,2.19-1.95,2.89-3.33c0.7-1.38,1.05-2.86,1.05-4.44
			c0-1.78-0.5-3.16-1.51-4.13c-1.01-0.97-2.28-1.45-3.8-1.45c-1.5,0-2.84,0.42-4.01,1.26c-1.18,0.84-2.09,1.96-2.75,3.37
			c-0.66,1.41-0.99,2.92-0.99,4.52c0,1.73,0.47,3.08,1.42,4.03c0.94,0.96,2.17,1.43,3.66,1.43
			C431.22,222.67,432.57,222.25,433.8,221.41z"/>
		<path class="st1" d="M449.17,225.27c-1.37-0.75-2.44-1.81-3.2-3.18c-0.76-1.37-1.14-2.93-1.14-4.69c0-2.4,0.56-4.6,1.69-6.59
			c1.12-1.99,2.67-3.57,4.65-4.73s4.18-1.75,6.61-1.75c1.81,0,3.41,0.38,4.81,1.14c1.4,0.76,2.49,1.82,3.28,3.18
			c0.79,1.36,1.18,2.93,1.18,4.71c0,2.4-0.58,4.6-1.75,6.59c-1.16,1.99-2.74,3.56-4.73,4.71c-1.99,1.15-4.2,1.73-6.63,1.73
			C452.13,226.39,450.54,226.02,449.17,225.27z M458.54,221.41c1.23-0.84,2.19-1.95,2.89-3.33c0.7-1.38,1.05-2.86,1.05-4.44
			c0-1.78-0.5-3.16-1.51-4.13c-1.01-0.97-2.28-1.45-3.8-1.45c-1.5,0-2.84,0.42-4.01,1.26c-1.18,0.84-2.09,1.96-2.75,3.37
			c-0.66,1.41-0.99,2.92-0.99,4.52c0,1.73,0.47,3.08,1.42,4.03c0.94,0.96,2.17,1.43,3.66,1.43
			C455.96,222.67,457.31,222.25,458.54,221.41z"/>
		<path class="st1" d="M475.54,220.11c-0.05,0.36-0.08,0.59-0.08,0.7c0,0.54,0.17,0.94,0.5,1.18c0.34,0.25,0.89,0.37,1.67,0.37h2.71
			l-0.66,3.68h-3.49c-1.71,0-3.01-0.34-3.92-1.03c-0.91-0.68-1.36-1.78-1.36-3.28c0-0.57,0.05-1.11,0.16-1.63l2.09-11.83h-2.52
			l0.62-3.61h2.56l0.93-5.31h4.46l-0.93,5.31h5.16l-0.62,3.61h-5.2L475.54,220.11z"/>
		<path class="st1" d="M486.53,209.54c1.18-1.67,2.64-2.95,4.38-3.86s3.64-1.36,5.68-1.36c2.58,0,4.61,0.61,6.09,1.84
			c1.47,1.23,2.31,2.98,2.52,5.25h-4.77c-0.21-1.06-0.69-1.89-1.44-2.48s-1.77-0.89-3.06-0.89c-1.81,0-3.36,0.64-4.65,1.92
			c-1.29,1.28-2.15,3.07-2.56,5.37c-0.13,0.83-0.19,1.5-0.19,2.02c0,1.71,0.43,3.02,1.28,3.94c0.85,0.92,2.04,1.38,3.57,1.38
			c2.56,0,4.45-1.12,5.66-3.37h4.77c-1.01,2.17-2.48,3.9-4.4,5.18s-4.16,1.92-6.69,1.92c-2.69,0-4.82-0.77-6.4-2.31
			c-1.58-1.54-2.37-3.63-2.37-6.26c0-0.8,0.08-1.63,0.23-2.48C484.57,213.14,485.35,211.21,486.53,209.54z"/>
		<path class="st1" d="M509.79,209.56c1.18-1.65,2.62-2.94,4.32-3.86c1.71-0.92,3.49-1.38,5.35-1.38c1.68,0,3.09,0.33,4.23,0.99
			c1.14,0.66,1.99,1.48,2.56,2.46l0.54-3.1h4.46l-3.76,21.37h-4.46l0.58-3.18c-0.93,1.01-2.1,1.85-3.51,2.52
			c-1.41,0.67-2.94,1.01-4.59,1.01c-1.6,0-3.03-0.36-4.29-1.08s-2.24-1.75-2.95-3.08c-0.71-1.33-1.07-2.86-1.07-4.59
			c0-0.78,0.08-1.56,0.23-2.37C507.84,213.12,508.62,211.22,509.79,209.56z M525.09,213.75c0-1.73-0.51-3.09-1.53-4.09
			c-1.02-0.99-2.29-1.49-3.82-1.49c-1.14,0-2.25,0.28-3.33,0.83c-1.09,0.56-2.03,1.37-2.83,2.44c-0.8,1.07-1.33,2.35-1.59,3.82
			c-0.1,0.49-0.16,1.02-0.16,1.59c0,1.76,0.51,3.15,1.53,4.17c1.02,1.02,2.29,1.53,3.82,1.53c1.14,0,2.25-0.28,3.33-0.85
			c1.08-0.57,2.03-1.4,2.83-2.5c0.8-1.1,1.33-2.38,1.59-3.86C525.04,214.85,525.09,214.32,525.09,213.75z"/>
		<path class="st1" d="M568.4,206.15c1.34,1.22,2.02,2.93,2.02,5.16c0,0.59-0.06,1.31-0.19,2.13l-2.25,12.6h-4.38l2.13-11.94
			c0.1-0.72,0.16-1.24,0.16-1.55c0-1.42-0.39-2.51-1.18-3.26c-0.79-0.75-1.88-1.12-3.28-1.12c-1.68,0-3.1,0.51-4.25,1.53
			c-1.15,1.02-1.88,2.49-2.19,4.4l-2.13,11.94h-4.38l2.13-11.94c0.1-0.72,0.16-1.24,0.16-1.55c0-1.42-0.39-2.51-1.18-3.26
			c-0.79-0.75-1.88-1.12-3.28-1.12c-1.68,0-3.1,0.51-4.25,1.53c-1.15,1.02-1.88,2.49-2.19,4.4v-0.12l-2.13,12.06h-4.42l3.76-21.37
			h4.42l-0.43,2.48c0.85-0.88,1.88-1.57,3.08-2.07s2.45-0.76,3.74-0.76c1.71,0,3.17,0.36,4.4,1.09s2.09,1.77,2.58,3.14
			c0.85-1.29,2.03-2.32,3.53-3.08c1.5-0.76,3.04-1.14,4.61-1.14C565.26,204.33,567.06,204.93,568.4,206.15z"/>
		<path class="st1" d="M584.75,205.33c1.41-0.67,2.93-1.01,4.56-1.01s3.08,0.35,4.34,1.05s2.25,1.69,2.95,2.99
			c0.7,1.29,1.05,2.81,1.05,4.54c0,0.75-0.08,1.54-0.23,2.37c-0.39,2.15-1.17,4.07-2.35,5.76c-1.18,1.69-2.61,3.01-4.3,3.96
			c-1.69,0.94-3.47,1.42-5.33,1.42c-1.63,0-3.02-0.33-4.17-0.99s-2.05-1.48-2.69-2.46l-2.33,13.26h-4.42l5.54-31.52h4.42l-0.54,3.14
			C582.17,206.83,583.34,206.01,584.75,205.33z M593.06,213.67c0-1.73-0.51-3.08-1.53-4.05c-1.02-0.97-2.31-1.45-3.86-1.45
			c-1.11,0-2.22,0.28-3.32,0.85c-1.1,0.57-2.05,1.4-2.85,2.48c-0.8,1.09-1.33,2.37-1.59,3.84c-0.1,0.49-0.16,1.02-0.16,1.59
			c0,1.73,0.51,3.1,1.53,4.11c1.02,1.01,2.29,1.51,3.82,1.51c1.14,0,2.25-0.29,3.35-0.87c1.1-0.58,2.05-1.43,2.85-2.54
			c0.8-1.11,1.33-2.4,1.59-3.88C593.01,214.77,593.06,214.24,593.06,213.67z"/>
	</g>
	<g>
		<g>
			<path class="st1" d="M42.82,132.85V28.69H1.74V4.48H113.6v24.21H72.53v104.16H42.82z"/>
		</g>
		<g>
			<path class="st1" d="M207.49,135.05c-10.26,0-20.11-1.38-29.52-4.13c-9.42-2.75-16.99-6.33-22.74-10.73l10.08-22.37
				c5.5,3.91,12.01,7.12,19.53,9.63c7.52,2.5,15.13,3.76,22.83,3.76c5.87,0,10.61-0.58,14.21-1.74c3.6-1.16,6.26-2.78,7.98-4.86
				c1.71-2.08,2.56-4.46,2.56-7.15c0-3.42-1.34-6.14-4.03-8.16c-2.69-2.02-6.24-3.67-10.64-4.95c-4.4-1.28-9.26-2.5-14.58-3.67
				c-5.32-1.16-10.64-2.6-15.95-4.31s-10.18-3.91-14.58-6.6c-4.4-2.69-7.98-6.23-10.73-10.64c-2.75-4.4-4.13-10.02-4.13-16.87
				c0-7.33,1.99-14.03,5.96-20.08c3.97-6.05,9.96-10.88,17.97-14.49c8.01-3.6,18.06-5.41,30.17-5.41c8.07,0,16.01,0.95,23.84,2.84
				c7.82,1.9,14.73,4.74,20.72,8.53l-9.17,22.56c-5.99-3.42-11.99-5.96-17.98-7.61s-11.86-2.48-17.6-2.48
				c-5.75,0-10.45,0.68-14.12,2.02c-3.67,1.35-6.3,3.09-7.89,5.23c-1.59,2.14-2.38,4.62-2.38,7.43c0,3.3,1.34,5.96,4.03,7.98
				c2.69,2.02,6.24,3.64,10.64,4.86s9.26,2.45,14.58,3.67c5.32,1.22,10.64,2.63,15.95,4.21c5.32,1.59,10.18,3.73,14.58,6.42
				s7.98,6.23,10.73,10.63c2.75,4.4,4.13,9.96,4.13,16.69c0,7.22-2.02,13.82-6.06,19.81c-4.03,5.99-10.06,10.82-18.06,14.49
				C229.83,133.21,219.71,135.05,207.49,135.05z"/>
		</g>
		<g>
			<g>
				<path class="st0" d="M346.79,81.66l56.19-77.18H371.8l-60.53,81.4v16.19H430.3V81.66H346.79z M430.3,114.58h-55.1v18.25h55.1
					V114.58z"/>
			</g>
		</g>
		<g>
			<path class="st1" d="M540.87,135.05c-18.22,0-32.46-5.07-42.73-15.22c-10.27-10.15-15.4-24.63-15.4-43.46V4.48h29.7v70.78
				c0,12.22,2.51,21.03,7.52,26.41s12.04,8.07,21.09,8.07c9.05,0,16.08-2.69,21.09-8.07c5.01-5.38,7.52-14.18,7.52-26.41V4.48H599
				v71.88c0,18.83-5.14,33.31-15.4,43.46C573.33,129.98,559.08,135.05,540.87,135.05z"/>
		</g>
	</g>
</g>
</svg>
